<svg xmlns="http://www.w3.org/2000/svg" width="124" height="124"><circle cx="62.938" cy="62.057" r="40.107" fill="none" stroke="#3C5A99" stroke-miterlimit="10" stroke-width="4"/><path fill="#A2B1CE" d="m62.12 62.411-.08-.577c.077-1.172-.094-2.381.507-3.477l.568.49c1.255 1.037.202 2.389.484 3.559-.161.009-.322.014-.484.016l-.995-.011z"/><path fill="#E8ECF3" d="m63.832 61.129-.789 1.963c-.353-.69-2.26-1.378-.003-2.072l.792.109z"/><path fill="#A7B5D1" d="m62.173 62.411.995.011.487 1.528c-.542.358-.023.679.036 1.017l-.527.528c-.421.206-.503.586-.509 1.003-1.012-1.262-.304-2.727-.482-4.087z"/><path fill="#3C5A99" fill-rule="evenodd" d="M56.292 62.257v24.565a.64.64 0 0 0 .64.639h9.123a.64.64 0 0 0 .64-.639V61.856h6.613a.64.64 0 0 0 .638-.586l.636-7.522a.64.64 0 0 0-.638-.694h-7.249v-5.336a2.265 2.265 0 0 1 2.265-2.265h5.097a.64.64 0 0 0 .64-.64v-7.522a.64.64 0 0 0-.64-.64h-8.612a9.15 9.15 0 0 0-9.151 9.151v7.251h-4.561a.64.64 0 0 0-.641.64v7.522c0 .354.287.64.641.64h4.561v.402z" clip-rule="evenodd"/></svg>